<?xml version="1.0" standalone="no"?>
<!DOCTYPE svg PUBLIC "-//W3C//DTD SVG 20010904//EN"
 "http://www.w3.org/TR/2001/REC-SVG-20010904/DTD/svg10.dtd">
<svg version="1.0" xmlns="http://www.w3.org/2000/svg"
 width="2250.000000pt" height="2250.000000pt" viewBox="0 0 2250.000000 2250.000000"
 preserveAspectRatio="xMidYMid meet">
<metadata>
Created by potrace 1.14, written by Peter Selinger 2001-2017
</metadata>
<g transform="translate(0.000000,2250.000000) scale(0.100000,-0.100000)"
fill="#000000" stroke="none">
<path d="M10845 22494 c-253 -12 -472 -27 -615 -40 -2340 -212 -4522 -1136
-6313 -2671 -1656 -1420 -2885 -3334 -3482 -5423 -225 -787 -357 -1558 -417
-2440 -16 -243 -16 -1097 0 -1340 91 -1328 360 -2495 847 -3665 620 -1488
1609 -2894 2795 -3970 1638 -1487 3597 -2439 5750 -2795 640 -105 1136 -144
1840 -144 473 0 656 7 1020 40 1773 160 3476 736 4975 1683 1428 902 2624
2098 3526 3526 799 1265 1334 2672 1579 4155 105 640 144 1136 144 1840 0 473
-7 656 -40 1020 -187 2072 -940 4038 -2184 5705 -1471 1971 -3564 3420 -5910
4090 -780 223 -1558 357 -2420 415 -153 11 -958 21 -1095 14z m-3721 -3175
c-517 -374 -1028 -873 -1432 -1398 -215 -279 -456 -653 -632 -980 -214 -399
-412 -888 -540 -1331 -412 -1433 -361 -2953 146 -4353 93 -256 181 -459 320
-737 799 -1598 2185 -2834 3866 -3449 156 -56 436 -145 588 -185 l65 -18 285
-2309 c156 -1269 281 -2311 278 -2314 -3 -3 -82 6 -174 20 -1515 235 -2891
812 -4094 1716 -372 280 -607 485 -970 849 -364 363 -569 598 -849 970 -1335
1776 -1969 3979 -1786 6205 188 2274 1228 4393 2915 5939 605 554 1228 991
1960 1375 74 39 139 71 144 71 4 0 -36 -32 -90 -71z m8320 -8 c1937 -1013
3446 -2683 4251 -4706 739 -1858 842 -3930 289 -5862 -370 -1297 -1015 -2469
-1938 -3523 -130 -149 -617 -636 -766 -766 -625 -548 -1265 -981 -1969 -1334
-739 -370 -1597 -657 -2401 -804 -215 -39 -472 -77 -478 -71 -3 3 122 1044
278 2314 l285 2309 135 37 c1354 375 2590 1174 3498 2261 665 797 1152 1745
1408 2744 292 1136 292 2359 -1 3495 -267 1039 -760 1982 -1475 2821 -155 183
-499 531 -677 687 -144 126 -368 304 -507 405 -54 40 -95 72 -91 72 5 0 76
-36 159 -79z m-3714 -766 c685 -68 1368 -285 1950 -619 1250 -717 2123 -1935
2394 -3341 110 -572 114 -1240 10 -1804 -155 -844 -508 -1600 -1058 -2266
-119 -144 -482 -509 -621 -624 -487 -404 -1012 -697 -1596 -892 -1251 -418
-2602 -319 -3779 276 -339 172 -636 368 -935 616 -139 116 -447 420 -568 563
-577 673 -953 1462 -1111 2327 -87 472 -99 1036 -35 1524 185 1400 971 2658
2149 3440 739 491 1565 765 2470 819 133 8 580 -4 730 -19z"/>
</g>
</svg>
